<svg width="112" height="130" viewBox="0 0 112 130" fill="none" xmlns="http://www.w3.org/2000/svg">
<path d="M5 84L52.4827 101.69C54.7503 102.534 57.2474 102.528 59.5108 101.672L106.153 84.0351M5 106L52.4827 123.69C54.7503 124.534 57.2474 124.528 59.5108 123.672L106.153 106.035M56 47V79M5 28L55.6112 46.5575M56.5223 46.5413L106.153 28.0351M5 29.7386V54.2614C5 58.1746 7.36218 61.6654 10.9011 62.9819L52.5082 78.4602C54.4428 79.1799 56.5572 79.1799 58.4918 78.4602L100.099 62.9819C103.638 61.6654 106 58.1746 106 54.2614V29.7386C106 25.8254 103.638 22.3346 100.099 21.0181L58.4918 5.53979C56.5572 4.82007 54.4428 4.82007 52.5082 5.53979L10.9011 21.0181C7.36218 22.3346 5 25.8254 5 29.7386Z" stroke="url(#paint0_linear_7_143)" stroke-width="10" stroke-linecap="round"/>
<defs>
<linearGradient id="paint0_linear_7_143" x1="5" y1="124" x2="106" y2="124" gradientUnits="userSpaceOnUse">
<stop stop-color="#4768DB"/>
<stop offset="1" stop-color="#AF6AB3"/>
</linearGradient>
</defs>
</svg>