<svg width="532" height="130" viewBox="0 0 532 130" fill="none" xmlns="http://www.w3.org/2000/svg">
<path d="M148.041 121.455V46.4545H162.956V55.6165H163.63C164.293 54.1487 165.252 52.6572 166.507 51.142C167.785 49.6032 169.442 48.3248 171.478 47.3068C173.538 46.2652 176.095 45.7443 179.149 45.7443C183.126 45.7443 186.796 46.786 190.157 48.8693C193.519 50.929 196.206 54.0421 198.218 58.2088C200.231 62.3518 201.237 67.5483 201.237 73.7983C201.237 79.8826 200.254 85.0199 198.289 89.2102C196.348 93.3769 193.697 96.5374 190.335 98.6918C186.997 100.822 183.256 101.888 179.113 101.888C176.178 101.888 173.68 101.402 171.62 100.432C169.584 99.4612 167.915 98.242 166.613 96.7741C165.311 95.2827 164.317 93.7794 163.63 92.2642H163.169V121.455H148.041ZM162.849 73.7273C162.849 76.9706 163.299 79.7997 164.199 82.2145C165.098 84.6293 166.4 86.5114 168.105 87.8608C169.809 89.1866 171.881 89.8494 174.319 89.8494C176.781 89.8494 178.865 89.1747 180.569 87.8253C182.274 86.4522 183.564 84.5582 184.44 82.1435C185.34 79.705 185.789 76.8996 185.789 73.7273C185.789 70.5786 185.351 67.8087 184.475 65.4176C183.6 63.0265 182.309 61.1562 180.605 59.8068C178.9 58.4574 176.805 57.7827 174.319 57.7827C171.857 57.7827 169.774 58.4337 168.069 59.7358C166.388 61.0379 165.098 62.8845 164.199 65.2756C163.299 67.6667 162.849 70.4839 162.849 73.7273ZM211.322 101V46.4545H226.45V101H211.322ZM218.922 39.4233C216.672 39.4233 214.743 38.6776 213.133 37.1861C211.547 35.6709 210.754 33.8598 210.754 31.7528C210.754 29.6695 211.547 27.8821 213.133 26.3906C214.743 24.8755 216.672 24.1179 218.922 24.1179C221.171 24.1179 223.088 24.8755 224.674 26.3906C226.284 27.8821 227.089 29.6695 227.089 31.7528C227.089 33.8598 226.284 35.6709 224.674 37.1861C223.088 38.6776 221.171 39.4233 218.922 39.4233ZM238.568 121.455V46.4545H253.483V55.6165H254.158C254.821 54.1487 255.779 52.6572 257.034 51.142C258.313 49.6032 259.97 48.3248 262.006 47.3068C264.065 46.2652 266.622 45.7443 269.676 45.7443C273.653 45.7443 277.323 46.786 280.685 48.8693C284.046 50.929 286.733 54.0421 288.746 58.2088C290.758 62.3518 291.764 67.5483 291.764 73.7983C291.764 79.8826 290.782 85.0199 288.817 89.2102C286.875 93.3769 284.224 96.5374 280.862 98.6918C277.524 100.822 273.784 101.888 269.641 101.888C266.705 101.888 264.207 101.402 262.148 100.432C260.112 99.4612 258.443 98.242 257.141 96.7741C255.839 95.2827 254.844 93.7794 254.158 92.2642H253.696V121.455H238.568ZM253.376 73.7273C253.376 76.9706 253.826 79.7997 254.726 82.2145C255.625 84.6293 256.928 86.5114 258.632 87.8608C260.337 89.1866 262.408 89.8494 264.847 89.8494C267.309 89.8494 269.392 89.1747 271.097 87.8253C272.801 86.4522 274.091 84.5582 274.967 82.1435C275.867 79.705 276.317 76.8996 276.317 73.7273C276.317 70.5786 275.879 67.8087 275.003 65.4176C274.127 63.0265 272.837 61.1562 271.132 59.8068C269.428 58.4574 267.332 57.7827 264.847 57.7827C262.384 57.7827 260.301 58.4337 258.597 59.7358C256.916 61.0379 255.625 62.8845 254.726 65.2756C253.826 67.6667 253.376 70.4839 253.376 73.7273ZM326.707 102.065C321.097 102.065 316.267 100.929 312.219 98.6562C308.194 96.3598 305.093 93.1165 302.915 88.9261C300.737 84.7121 299.648 79.7287 299.648 73.9759C299.648 68.3651 300.737 63.4408 302.915 59.2031C305.093 54.9654 308.159 51.6629 312.112 49.2955C316.089 46.928 320.753 45.7443 326.104 45.7443C329.702 45.7443 333.052 46.3243 336.153 47.4844C339.278 48.6207 342.001 50.3371 344.321 52.6335C346.665 54.9299 348.488 57.8182 349.79 61.2983C351.092 64.7547 351.743 68.803 351.743 73.4432V77.598H305.685V68.223H337.503C337.503 66.045 337.029 64.1155 336.082 62.4347C335.135 60.7538 333.821 59.4399 332.141 58.4929C330.483 57.5223 328.554 57.0369 326.352 57.0369C324.056 57.0369 322.02 57.5696 320.244 58.6349C318.492 59.6766 317.119 61.0852 316.125 62.8608C315.131 64.6127 314.622 66.5658 314.598 68.7202V77.6335C314.598 80.3324 315.095 82.6643 316.089 84.6293C317.107 86.5942 318.54 88.1094 320.386 89.1747C322.233 90.2401 324.423 90.7727 326.956 90.7727C328.637 90.7727 330.176 90.536 331.572 90.0625C332.969 89.589 334.165 88.8788 335.159 87.9318C336.153 86.9848 336.911 85.8248 337.432 84.4517L351.423 85.375C350.713 88.7367 349.257 91.6723 347.055 94.1818C344.877 96.6676 342.06 98.6089 338.604 100.006C335.171 101.379 331.205 102.065 326.707 102.065ZM376.743 69.4659V101H361.615V46.4545H376.033V56.0781H376.672C377.879 52.9058 379.903 50.3963 382.744 48.5497C385.585 46.6795 389.03 45.7443 393.078 45.7443C396.866 45.7443 400.169 46.5729 402.986 48.2301C405.803 49.8873 407.993 52.2547 409.555 55.3324C411.118 58.3864 411.899 62.0322 411.899 66.2699V101H396.771V68.9688C396.795 65.6307 395.943 63.0265 394.214 61.1562C392.486 59.2623 390.107 58.3153 387.077 58.3153C385.041 58.3153 383.241 58.7533 381.679 59.6293C380.14 60.5052 378.933 61.7836 378.057 63.4645C377.205 65.1217 376.767 67.1222 376.743 69.4659ZM448.68 102.065C443.069 102.065 438.24 100.929 434.191 98.6562C430.167 96.3598 427.065 93.1165 424.887 88.9261C422.709 84.7121 421.62 79.7287 421.62 73.9759C421.62 68.3651 422.709 63.4408 424.887 59.2031C427.065 54.9654 430.131 51.6629 434.085 49.2955C438.062 46.928 442.726 45.7443 448.076 45.7443C451.675 45.7443 455.025 46.3243 458.126 47.4844C461.251 48.6207 463.974 50.3371 466.294 52.6335C468.637 54.9299 470.46 57.8182 471.762 61.2983C473.065 64.7547 473.716 68.803 473.716 73.4432V77.598H427.657V68.223H459.475C459.475 66.045 459.002 64.1155 458.055 62.4347C457.108 60.7538 455.794 59.4399 454.113 58.4929C452.456 57.5223 450.527 57.0369 448.325 57.0369C446.029 57.0369 443.993 57.5696 442.217 58.6349C440.465 59.6766 439.092 61.0852 438.098 62.8608C437.103 64.6127 436.594 66.5658 436.571 68.7202V77.6335C436.571 80.3324 437.068 82.6643 438.062 84.6293C439.08 86.5942 440.512 88.1094 442.359 89.1747C444.206 90.2401 446.395 90.7727 448.929 90.7727C450.609 90.7727 452.148 90.536 453.545 90.0625C454.942 89.589 456.137 88.8788 457.132 87.9318C458.126 86.9848 458.884 85.8248 459.404 84.4517L473.396 85.375C472.686 88.7367 471.23 91.6723 469.028 94.1818C466.85 96.6676 464.033 98.6089 460.576 100.006C457.144 101.379 453.178 102.065 448.68 102.065ZM495.253 46.4545L505.267 65.5241L515.53 46.4545H531.049L515.246 73.7273L531.475 101H516.027L505.267 82.1435L494.685 101H479.06L495.253 73.7273L479.628 46.4545H495.253Z" fill="white"/>
<path d="M5 84L52.4827 101.69C54.7503 102.534 57.2474 102.528 59.5108 101.672L106.153 84.0351M5 106L52.4827 123.69C54.7503 124.534 57.2474 124.528 59.5108 123.672L106.153 106.035M56 47V79M5 28L55.6112 46.5575M56.5223 46.5413L106.153 28.0351M5 29.7386V54.2614C5 58.1746 7.36218 61.6654 10.9011 62.9819L52.5082 78.4602C54.4428 79.1799 56.5572 79.1799 58.4918 78.4602L100.099 62.9819C103.638 61.6654 106 58.1746 106 54.2614V29.7386C106 25.8254 103.638 22.3346 100.099 21.0181L58.4918 5.53979C56.5572 4.82007 54.4428 4.82007 52.5082 5.53979L10.9011 21.0181C7.36218 22.3346 5 25.8254 5 29.7386Z" stroke="url(#paint0_linear_0_1)" stroke-width="10" stroke-linecap="round"/>
<defs>
<linearGradient id="paint0_linear_0_1" x1="5" y1="124" x2="106" y2="124" gradientUnits="userSpaceOnUse">
<stop stop-color="#4768DB"/>
<stop offset="1" stop-color="#AF6AB3"/>
</linearGradient>
</defs>
</svg>
